<?xml version="1.0" encoding="UTF-8"?>
<!DOCTYPE svg PUBLIC "-//W3C//DTD SVG 1.1//EN" "http://www.w3.org/Graphics/SVG/1.1/DTD/svg11.dtd">
<!-- Creator: CorelDRAW 2019 (64-Bit) -->
<svg xmlns="http://www.w3.org/2000/svg" xml:space="preserve" width="11.6929in" height="8.26772in" version="1.1" style="shape-rendering:geometricPrecision; text-rendering:geometricPrecision; image-rendering:optimizeQuality; fill-rule:evenodd; clip-rule:evenodd"
viewBox="0 0 11692.91 8267.72"
 xmlns:xlink="http://www.w3.org/1999/xlink">
 <defs>
  <style type="text/css">
   <![CDATA[
    .fil1 {fill:#000066}
    .fil0 {fill:#1A1A1A}
    .fil6 {fill:#1C1E3D}
    .fil2 {fill:purple}
    .fil3 {fill:#999999}
    .fil4 {fill:#FDFDFD}
    .fil5 {fill:white}
   ]]>
  </style>
 </defs>
 <g id="Layer_x0020_1">
  <metadata id="CorelCorpID_0Corel-Layer"/>
  <g id="_1492509154880">
   <g>
    <path class="fil0" d="M5342.88 5805.99c232.17,-147.31 26.32,60.28 592.3,23.76 -12.99,196.01 9.9,402.49 -26.86,591.02 -19.17,98.3 -67.93,437.47 -98.37,501.76 -82.65,-66.3 -264.43,-672.47 -351.81,-847.95l-141.33 -251.51 26.09 -17.08zm-213.74 -1149.07c20.7,-19.72 5.56,2.23 27.44,-35.76 13.75,-23.85 114.08,-292.3 211.89,-463.63 52.65,-92.23 74.55,-148.83 157.88,-204.13 69.96,-46.43 185.85,-67.77 283.94,-67.03 344.54,2.59 411.74,246.76 544.23,530.25 29.55,63.22 73.9,206.44 101.06,246.21l65.33 -173.2c41.43,68.09 74.46,163.26 90.21,259.72l-359.37 17.89c-9.37,90.55 74.07,377.91 85.24,500.01l-395.83 -0.03 -2.67 211.22c-314.57,-58.36 -431.29,100.76 -640.66,201.57 -274.47,-153.74 -357.58,-551.91 -319.98,-876.77 8.15,-70.36 36.97,-213.42 72.83,-276.74l22.32 -31.71c31.83,49.22 45.13,99.31 56.12,162.11zm1344.9 -632.54c151.54,-97.4 508.37,-185.22 727,-199.55 -92.99,142.21 -359.74,341.52 -550.51,308.53 -82.87,-14.33 -152.53,-57.95 -176.49,-108.98zm-1324.8 -4c-48.44,130.61 -270.63,138.46 -415.5,69.25 -117.19,-55.99 -243.36,-186.4 -309.04,-264.94 237.82,18.07 547.07,105.4 724.53,195.69zm3586.98 -383.43c-30.45,116.18 -75.27,219.92 -118.7,322.73 -27.6,65.35 -39.11,98.7 -75.3,149.3 -30.39,42.49 -64.35,76.15 -83.3,125.98 91.19,14.5 202.5,-63.85 284.3,-85.46 -59.39,132.09 -163.22,251.89 -229.52,360.62l-368.17 20.66 -368.61 37.11 194.09 -193.28c160.43,-199.79 371.06,-506.16 439.92,-765.04 -333.83,-27.13 -651.57,-174.52 -765.07,-496.45 -15.51,-43.99 -19.28,-92.89 -45.8,-128.81 -210.69,-35.39 -376.86,-29.8 -570.1,36.56 -270.24,92.8 -310.94,183.53 -408.15,244.62 -26.57,-46.44 -30.72,-145.33 -36.68,-208l-100.31 142.71c-34.07,50.09 -52.25,86.07 -90.47,134.79 -64.87,82.69 -131.35,171.53 -272.15,193.06 -68.08,-98.28 -222.76,-593.72 -225.64,-745.98l-13.76 -42.85c-16.09,-67.65 -17.67,-191.79 -44.06,-250.91 -10.01,68.76 -56.61,364.69 -84.18,394.2 13.26,176.92 -145.69,520.68 -178.66,648.6 -129.42,-26.34 -199.25,-99.47 -273.19,-198.39 -61,-81.61 -124.74,-191.46 -192.22,-268.66 -27.19,40.82 -27.04,146.41 -42.41,206.04 -71.84,-92.95 -276.89,-206.99 -410.61,-254.04 -179.05,-63.01 -381.48,-71.9 -571.17,-31 -36.2,54.85 -54.69,174.88 -106.11,258.85 -158.23,258.35 -419.46,309.69 -703.94,369.37 88.58,271.81 280.95,566.19 429.93,741.61 156.11,183.82 444.04,434.02 646.9,527.01l36.19 29.39c-16.96,31.78 -50.28,56.04 -88.66,57.86 -25.62,1.22 -96.65,-14.37 -126.23,-19.59l-744.15 -131.58c-96.79,-41.16 -477.98,-500.66 -527.44,-652.39l242.56 107.87 66.54 1.52c-1.88,-67.02 -53.33,-99.07 -88.57,-136.94 -88.16,-94.75 -191.78,-357.9 -192.48,-457.69 -51.81,-46.25 -127.51,-534.65 -135.89,-641.74 284.83,77.25 483.72,120.12 737.98,-41.78 160.85,-102.42 301.2,-287.04 392.61,-494.45 45.85,-104.05 30.88,-74.59 74.01,-86.04 25.91,-6.88 4.61,9.35 25.39,-13.67 109.75,-121.66 -16.74,-330.3 -65.11,-513.3 -44.54,-168.48 -125.28,-622.98 -35.87,-775.29 159.67,66.71 347.21,211.64 448.39,338.37l181.81 205.58c186.8,207.56 367.36,80 399.94,-27.41 21.53,-70.98 -41.94,-132.35 -68,-166.61 91.62,-53.55 335.37,-111.7 456.48,-132.23 317.46,-53.81 359.95,10.74 528.9,2.19 459.52,-23.26 508.72,-55.56 970.16,124.03 -77,8.49 -57.8,-10.56 -95.58,43.34 -79.19,112.96 0.24,198.3 89.68,235.92 175.24,73.71 261.88,-80.14 335.5,-160.84l125.12 -137.1c108.51,-115.98 48.95,-75.12 201.34,-198.9l248.23 -143c1.84,3.06 3.67,7.25 4.67,9.66l29.41 157.24c25.61,273.4 -45.95,591.59 -136.8,846.17 -66.86,187.34 -54.64,120.68 8.64,284.8 66.14,14.31 41.35,-33.31 73.41,37.79 83.89,186.13 187.48,389.2 362.51,512.87 106.55,75.28 204.63,128.27 363.5,146.43 202.77,23.18 265.69,-25.91 425.47,-68.05 -18.95,149.98 -85.71,508.6 -140.49,612.6zm-7145.93 4234.49l163.9 0c-18.91,-202.86 10.46,-378.06 13.21,-574.89 2.63,-188.63 52.25,-283.93 134.47,-436.68 281.86,-523.62 791.62,-810.46 1368.51,-928.86 124.7,-25.59 382.58,-71.97 510.39,-55.54 211,27.12 314.58,209.76 368,205.62 1.64,-0.13 179.01,-52.01 -25.09,-207.68 -293.22,-223.66 -316.34,-66.22 -406.19,-244.39 -95.39,-189.14 -189.34,-409.81 -228.32,-634.03l23.33 -6.95c44.72,-7.6 227.56,29.69 272.8,38.53 89.78,17.56 182.17,30.67 274.97,46.89 93.37,16.32 201.21,30.36 290.31,48.84 88.13,18.28 221.21,26.09 268.49,63.76 -4.9,289.63 -50.22,197.26 13.02,477.81 42.61,189.03 114.13,232.49 -54.93,351.66 -32.65,23.01 -48.27,36.76 -73.99,62.2l-58.15 54.12c-2.01,1.67 -4.94,3.92 -6.94,5.59 -38.91,32.51 -82.49,72.66 -106.8,142.81 -43.85,126.46 99.57,269.01 148.31,348.65 69.46,113.5 138.92,194.66 208.13,303.54 69.37,109.11 142.62,209.23 206.52,305.84 88.11,133.21 375.29,497.46 390.52,633.15l175.85 0c-27.13,-88.98 -184.22,-313.67 -239.37,-398 -145.92,-223.14 -703.85,-991.98 -773.65,-1150.77 43.41,-87.76 319.09,-254.04 360.85,-377.51 53.31,-157.61 -120.2,-323.4 -50.52,-575.88 13.43,-48.64 -19.33,50.59 6.69,-19.17l8.65 -18.48c27.21,22.91 72.91,83.44 105.88,123.28 270.33,326.68 443.44,556.86 586.11,987.13 68.62,206.94 167.24,440.49 263.51,636.88 58.13,118.59 31.87,161.97 -6.5,355.86 -29.81,150.61 -13.6,281.48 -9.76,436.66l209.94 0c3.11,-99.41 22.3,-194.62 32.4,-291.29 49.72,-475.98 143.51,-1050.76 147.2,-1507.78 0.88,-109.37 -4.89,-572.07 18.37,-637.57 72.89,-35.05 293.24,-9.04 392.5,-9.32l-90.79 -496.4c412.86,-48.88 558.36,-40.22 1018.51,-124.44 267.5,-48.96 718.62,-147.67 1008.3,-129.74 -24.55,71.54 -18.67,143.22 -43.22,221.5 -23.76,75.76 -32.36,157.48 -42.26,230.35 -21.24,156.38 -30.3,342.74 -61.39,490.57 -162.52,16.26 -344.07,3.09 -516.74,20.3 -439.66,43.81 -687.99,125.5 -1081.4,256.87 -88.57,29.57 -121.85,64.7 -68.06,149.82 84.59,11.38 519.91,-178.37 791.34,-200.18 -30.3,33.81 -328.71,169.89 -576.61,382.11 -120.38,103.05 -146.73,86.75 -141.59,183.39 98.52,48.07 74.6,23.43 225.62,-98.94 373.31,-302.5 889.26,-538.32 1386.13,-542.74 128.74,-1.15 478.61,126.72 605.68,173.24 352.05,128.9 670.3,337.18 929.71,606.36 320,332.06 191.74,797.69 207.89,1323.89l86.4 0c7.85,-486.73 140.04,-974.74 -138.59,-1329.38 -43.62,-55.52 -74.66,-84.79 -114.73,-135.24 -43.29,-54.5 -79.72,-74.27 -128.15,-121.73 -388.51,-380.69 -724.57,-509.41 -1351.26,-662.88 8.72,-278.92 67,-517.75 123.59,-775.6 35.24,-160.58 4.06,-164.28 64.96,-236.92 90.16,-107.53 164.16,-220.17 249.28,-349.51 37.19,-56.52 77.79,-128.72 108.32,-192.27 28.47,-59.25 56.06,-137.47 85.2,-192.95l-273.8 119.22 181.39 -568.81c71.32,-303.96 60.97,-459.69 98.57,-652.96 -48.92,15.04 -65.57,45.46 -140.92,84.28 -421.25,217.06 -778.06,84.75 -1004.94,-344.98 -21.33,-40.41 -58.55,-113.27 -69.2,-156.2 -14.86,-59.89 21.12,-102 43.78,-154.05 143.5,-329.61 274.83,-697.33 210.7,-1074.12 -19.96,-117.31 -65.55,-238.82 -111.52,-337.74 -68.72,-147.82 -117.09,-145.28 -286.53,-100.31 -375.28,99.62 -568.14,260.41 -811.46,501.04 -142.5,140.93 -207.41,-39.68 -687.64,-59.32 -147.62,-6.04 -290.43,29.98 -412.49,22.09 -326.28,-21.11 -466.63,-42.09 -788.71,47.79 -175.69,49.04 -170.08,89 -292.77,-41.75 -209.24,-222.99 -508.46,-405.82 -826.26,-485.01 -185.72,-46.28 -196.48,27.35 -258.02,160.43 -48.65,105.22 -86.13,205.54 -109.42,327.89 -120.32,632.18 295.93,1057.52 229.7,1239.65 -79.57,218.8 -273.44,505.09 -534.27,556.83 -187.02,37.09 -378.97,5.71 -536.13,-90.26 -46.83,-28.6 -79.98,-58.43 -125.62,-78.29 67.7,174.4 79.33,554.11 208.28,933.13 18.89,55.52 93.29,234.72 95.48,269.72l-301.14 -131.19c57.07,214.21 269.77,525.72 406.33,697.01l169.31 192.62c233.72,250.96 206.29,125.88 251.91,309.69l132.92 405.03c25.71,67.73 103.42,200.07 102.17,254.94 -32.13,18.72 -363.24,63.39 -442.07,81.24 -145.53,32.95 -268.16,77.28 -395.76,128.25 -225.86,90.21 -506.41,264.01 -639.73,397.02 -57.36,57.23 -200.91,202.56 -251.2,274.11 -221.54,315.15 -245.53,399.11 -270.96,774.52 -11.14,164.44 -18.71,331.58 -18.71,494.96z"/>
    <path id="1" class="fil1" d="M5342.88 5805.99c232.17,-147.31 26.32,60.28 592.3,23.76 -12.99,196.01 9.9,402.49 -26.86,591.02 -19.17,98.3 -67.93,437.47 -98.37,501.76 -82.65,-66.3 -264.43,-672.47 -351.81,-847.95l-141.33 -251.51 26.09 -17.08zm-213.74 -1149.07c20.7,-19.72 5.56,2.23 27.44,-35.76 13.75,-23.85 114.08,-292.3 211.89,-463.63 52.65,-92.23 74.55,-148.83 157.88,-204.13 69.96,-46.43 185.85,-67.77 283.94,-67.03 344.54,2.59 411.74,246.76 544.23,530.25 29.55,63.22 73.9,206.44 101.06,246.21l65.33 -173.2c41.43,68.09 74.46,163.26 90.21,259.72l-359.37 17.89c-9.37,90.55 74.07,377.91 85.24,500.01l-395.83 -0.03 -2.67 211.22c-314.57,-58.36 -431.29,100.76 -640.66,201.57 -274.47,-153.74 -357.58,-551.91 -319.98,-876.77 8.15,-70.36 36.97,-213.42 72.83,-276.74l22.32 -31.71c31.83,49.22 45.13,99.31 56.12,162.11zm1344.9 -632.54c151.54,-97.4 508.37,-185.22 727,-199.55 -92.99,142.21 -359.74,341.52 -550.51,308.53 -82.87,-14.33 -152.53,-57.95 -176.49,-108.98zm-2049.33 -199.69c237.82,18.07 547.07,105.4 724.53,195.69 -48.44,130.61 -270.63,138.46 -415.5,69.25 -117.19,-55.99 -243.36,-186.4 -309.04,-264.94zm3175.34 -840.37c-210.69,-35.39 -376.86,-29.8 -570.1,36.56 -270.24,92.8 -310.94,183.53 -408.15,244.62 -26.57,-46.44 -30.72,-145.33 -36.68,-208l-100.31 142.71c-34.07,50.09 -52.25,86.07 -90.47,134.79 -64.87,82.69 -131.35,171.53 -272.15,193.06 -68.08,-98.28 -222.76,-593.72 -225.64,-745.98l-13.76 -42.85c-16.09,-67.65 -17.67,-191.79 -44.06,-250.91 -10.01,68.76 -56.61,364.69 -84.18,394.2 13.26,176.92 -145.69,520.68 -178.66,648.6 -129.42,-26.34 -199.25,-99.47 -273.19,-198.39 -61,-81.61 -124.74,-191.46 -192.22,-268.66 -27.19,40.82 -27.04,146.41 -42.41,206.04 -71.84,-92.95 -276.89,-206.99 -410.61,-254.04 -179.05,-63.01 -381.48,-71.9 -571.17,-31 -36.2,54.85 -54.69,174.88 -106.11,258.85 -158.23,258.35 -419.46,309.69 -703.94,369.37 88.58,271.81 280.95,566.19 429.93,741.61 156.11,183.82 444.04,434.02 646.9,527.01l36.19 29.39c-16.96,31.78 -50.28,56.04 -88.66,57.86 -25.62,1.22 -96.65,-14.37 -126.23,-19.59l-744.15 -131.58c-96.79,-41.16 -477.98,-500.66 -527.44,-652.39l242.56 107.87 66.54 1.52c-1.88,-67.02 -53.33,-99.07 -88.57,-136.94 -88.16,-94.75 -191.78,-357.9 -192.48,-457.69 -51.81,-46.25 -127.51,-534.65 -135.89,-641.74 284.83,77.25 483.72,120.12 737.98,-41.78 160.85,-102.42 301.2,-287.04 392.61,-494.45 45.85,-104.05 30.88,-74.59 74.01,-86.04 25.91,-6.88 4.61,9.35 25.39,-13.67 109.75,-121.66 -16.74,-330.3 -65.11,-513.3 -44.54,-168.48 -125.28,-622.98 -35.87,-775.29 159.67,66.71 347.21,211.64 448.39,338.37l181.81 205.58c186.8,207.56 367.36,80 399.94,-27.41 21.53,-70.98 -41.94,-132.35 -68,-166.61 91.62,-53.55 335.37,-111.7 456.48,-132.23 317.46,-53.81 359.95,10.74 528.9,2.19 459.52,-23.26 508.72,-55.56 970.16,124.03 -77,8.49 -57.8,-10.56 -95.58,43.34 -79.19,112.96 0.24,198.3 89.68,235.92 175.24,73.71 261.88,-80.14 335.5,-160.84l125.12 -137.1c108.51,-115.98 48.95,-75.12 201.34,-198.9l248.23 -143c1.84,3.06 3.67,7.25 4.67,9.66l29.41 157.24c25.61,273.4 -45.95,591.59 -136.8,846.17 -66.86,187.34 -54.64,120.68 8.64,284.8 66.14,14.31 41.35,-33.31 73.41,37.79 83.89,186.13 187.48,389.2 362.51,512.87 106.55,75.28 204.63,128.27 363.5,146.43 202.77,23.18 265.69,-25.91 425.47,-68.05 -18.95,149.98 -85.71,508.6 -140.49,612.6 -30.45,116.18 -75.27,219.92 -118.7,322.73 -27.6,65.35 -39.11,98.7 -75.3,149.3 -30.39,42.49 -64.35,76.15 -83.3,125.98 91.19,14.5 202.5,-63.85 284.3,-85.46 -59.39,132.09 -163.22,251.89 -229.52,360.62l-368.17 20.66 -368.61 37.11 194.09 -193.28c160.43,-199.79 371.06,-506.16 439.92,-765.04 -333.83,-27.13 -651.57,-174.52 -765.07,-496.45 -15.51,-43.99 -19.28,-92.89 -45.8,-128.81zm-964.19 3060c84.59,11.38 519.91,-178.37 791.34,-200.18 -30.3,33.81 -328.71,169.89 -576.61,382.11 -120.38,103.05 -146.73,86.75 -141.59,183.39 98.52,48.07 74.6,23.43 225.62,-98.94 373.31,-302.5 889.26,-538.32 1386.13,-542.74 128.74,-1.15 478.61,126.72 605.68,173.24 352.05,128.9 670.3,337.18 929.71,606.36 320,332.06 191.74,797.69 207.89,1323.89l86.4 0c7.85,-486.73 140.04,-974.74 -138.59,-1329.38 -43.62,-55.52 -74.66,-84.79 -114.73,-135.24 -43.29,-54.5 -79.72,-74.27 -128.15,-121.73 -388.51,-380.69 -724.57,-509.41 -1351.26,-662.88 8.72,-278.92 67,-517.75 123.59,-775.6 35.24,-160.58 4.06,-164.28 64.96,-236.92 90.16,-107.53 164.16,-220.17 249.28,-349.51 37.19,-56.52 77.79,-128.72 108.32,-192.27 28.47,-59.25 56.06,-137.47 85.2,-192.95l-273.8 119.22 181.39 -568.81c71.32,-303.96 60.97,-459.69 98.57,-652.96 -48.92,15.04 -65.57,45.46 -140.92,84.28 -421.25,217.06 -778.06,84.75 -1004.94,-344.98 -21.33,-40.41 -58.55,-113.27 -69.2,-156.2 -14.86,-59.89 21.12,-102 43.78,-154.05 143.5,-329.61 274.83,-697.33 210.7,-1074.12 -19.96,-117.31 -65.55,-238.82 -111.52,-337.74 -68.72,-147.82 -117.09,-145.28 -286.53,-100.31 -375.28,99.62 -568.14,260.41 -811.46,501.04 -142.5,140.93 -207.41,-39.68 -687.64,-59.32 -147.62,-6.04 -290.43,29.98 -412.49,22.09 -326.28,-21.11 -466.63,-42.09 -788.71,47.79 -175.69,49.04 -170.08,89 -292.77,-41.75 -209.24,-222.99 -508.46,-405.82 -826.26,-485.01 -185.72,-46.28 -196.48,27.35 -258.02,160.43 -48.65,105.22 -86.13,205.54 -109.42,327.89 -120.32,632.18 295.93,1057.52 229.7,1239.65 -79.57,218.8 -273.44,505.09 -534.27,556.83 -187.02,37.09 -378.97,5.71 -536.13,-90.26 -46.83,-28.6 -79.98,-58.43 -125.62,-78.29 67.7,174.4 79.33,554.11 208.28,933.13 18.89,55.52 93.29,234.72 95.48,269.72l-301.14 -131.19c57.07,214.21 269.77,525.72 406.33,697.01l169.31 192.62c233.72,250.96 206.29,125.88 251.91,309.69l132.92 405.03c25.71,67.73 103.42,200.07 102.17,254.94 -32.13,18.72 -363.24,63.39 -442.07,81.24 -145.53,32.95 -268.16,77.28 -395.76,128.25 -225.86,90.21 -506.41,264.01 -639.73,397.02 -57.36,57.23 -200.91,202.56 -251.2,274.11 -221.54,315.15 -245.53,399.11 -270.96,774.52 -11.14,164.44 -18.71,331.58 -18.71,494.96l163.9 0c-18.91,-202.86 10.46,-378.06 13.21,-574.89 2.63,-188.63 52.25,-283.93 134.47,-436.68 281.86,-523.62 791.62,-810.46 1368.51,-928.86 124.7,-25.59 382.58,-71.97 510.39,-55.54 211,27.12 314.58,209.76 368,205.62 1.64,-0.13 179.01,-52.01 -25.09,-207.68 -293.22,-223.66 -316.34,-66.22 -406.19,-244.39 -95.39,-189.14 -189.34,-409.81 -228.32,-634.03l23.33 -6.95c44.72,-7.6 227.56,29.69 272.8,38.53 89.78,17.56 182.17,30.67 274.97,46.89 93.37,16.32 201.21,30.36 290.31,48.84 88.13,18.28 221.21,26.09 268.49,63.76 -4.9,289.63 -50.22,197.26 13.02,477.81 42.61,189.03 114.13,232.49 -54.93,351.66 -32.65,23.01 -48.27,36.76 -73.99,62.2l-58.15 54.12c-2.01,1.67 -4.94,3.92 -6.94,5.59 -38.91,32.51 -82.49,72.66 -106.8,142.81 -43.85,126.46 99.57,269.01 148.31,348.65 69.46,113.5 138.92,194.66 208.13,303.54 69.37,109.11 142.62,209.23 206.52,305.84 88.11,133.21 375.29,497.46 390.52,633.15l175.85 0c-27.13,-88.98 -184.22,-313.67 -239.37,-398 -145.92,-223.14 -703.85,-991.98 -773.65,-1150.77 43.41,-87.76 319.09,-254.04 360.85,-377.51 53.31,-157.61 -120.2,-323.4 -50.52,-575.88 0.56,-2.03 1.04,-3.8 1.44,-5.33 1.39,-3.61 3.12,-8.17 5.24,-13.84l8.65 -18.48c27.21,22.91 72.91,83.44 105.88,123.28 270.33,326.68 443.44,556.86 586.11,987.13 68.62,206.94 167.24,440.49 263.51,636.88 58.13,118.59 31.87,161.97 -6.5,355.86 -29.81,150.61 -13.6,281.48 -9.76,436.66l209.94 0c3.11,-99.41 22.3,-194.62 32.4,-291.29 49.72,-475.98 143.51,-1050.76 147.2,-1507.78 0.88,-109.37 -4.89,-572.07 18.37,-637.57 72.89,-35.05 293.24,-9.04 392.5,-9.32l-90.79 -496.4c412.86,-48.88 558.36,-40.22 1018.51,-124.44 267.5,-48.96 718.62,-147.67 1008.3,-129.74 -24.55,71.54 -18.67,143.22 -43.22,221.5 -23.76,75.76 -32.36,157.48 -42.26,230.35 -21.24,156.38 -30.3,342.74 -61.39,490.57 -162.52,16.26 -344.07,3.09 -516.74,20.3 -439.66,43.81 -687.99,125.5 -1081.4,256.87 -88.57,29.57 -121.85,64.7 -68.06,149.82zm-1876.48 -680.36c8.56,-32.33 -15.04,38.9 0,0zm742.76 409.82c-38.54,-23.74 -51.33,-31.61 -157.15,35.54l0 0 -22.96 15.04 139.54 248.31 0.09 0.17c34.13,68.52 82.56,202.44 133.88,344.33 78.06,215.84 162.83,450.17 212.98,498.83 21.72,-53.38 52.08,-236.31 74.37,-370.66 8.78,-52.91 16.32,-98.33 21.57,-125.3 22.89,-117.39 22.59,-241.91 22.28,-366.49 -0.18,-73.67 -0.35,-147.39 4.23,-219.59 -300.5,18.84 -382.46,-31.61 -428.83,-60.17zm-359.33 -1123.22l0 0.01c-1.52,1 -4.24,2.8 -10.96,9.2l-6.58 -2.17c-5.47,-31.24 -11.5,-59.31 -20.11,-85.61 -8,-24.44 -18.23,-47.43 -32.31,-70.11l-18.84 26.77c-15.18,26.89 -29.14,68.43 -40.77,112.61 -15.51,58.93 -26.84,122.48 -31.47,162.45 -20.26,175.1 -5.36,371.55 55.83,539.24 51.62,141.45 136.2,262.39 260.39,332.65 52.2,-25.28 98.76,-54.26 144.13,-82.48 134.85,-83.9 259.31,-161.29 492.52,-119.33l2.61 -206.59 3.92 -3.87 391.52 0.03c-5.22,-51.19 -22.24,-129.63 -39.72,-210.22 -24.83,-114.42 -50.59,-233.18 -45.11,-286.27l3.72 -3.52 354.96 -17.67c-7.85,-46.58 -19.73,-92.75 -34.6,-135.57 -14.26,-41.06 -31.3,-79.07 -50.22,-111.44l-62.46 165.57 -6.92 0.83c-16.24,-23.78 -38.22,-83.1 -59.64,-140.9 -14.97,-40.41 -29.68,-80.08 -41.72,-105.87 -14.64,-31.33 -28.39,-61.97 -41.81,-91.85 -108.26,-241.18 -194.76,-433.85 -498.89,-436.14 -51.44,-0.39 -107.85,5.34 -159.89,17.63 -46.39,10.95 -89.25,27.11 -121.87,48.76 -69.93,46.41 -96.22,93.95 -134.53,163.26 -6.8,12.3 -13.99,25.3 -22.11,39.52 -70.78,123.99 -142.95,299.07 -182.53,395.08 -15.08,36.58 -25.45,61.74 -29.38,68.56 -4.87,8.45 -8.13,14.36 -10.22,18.15 -2.04,3.69 -2.98,5.4 -3.92,6.63l0 0c-1.02,1.33 -1.74,1.8 -3.04,2.66zm1650.54 -747.9c-125.78,34.52 -242.3,77.77 -314.24,123.16 12.11,23.74 34.47,45.78 63.53,63.72 30.28,18.7 67.79,32.91 108.56,39.95 84.41,14.59 184.15,-16.97 276.88,-68.94 111.53,-62.5 212.76,-154.43 265.24,-231.24 -113.54,8.24 -262.26,35.55 -399.96,73.34zm-1652.57 127.68l-0.01 -0.01c1.24,-2.6 2.42,-5.29 3.52,-8.04 -90.13,-45.44 -213.51,-90.05 -344.03,-125.3 -123.14,-33.26 -252.61,-58.19 -366.46,-67.62 37.81,44.52 93.06,103.4 154.36,155.95 47.27,40.52 98.12,77.29 147.28,100.78l0.01 -0.01c10.64,5.08 21.75,9.76 33.2,14.01 68.77,25.5 149.16,35.04 218.84,24.54 69.12,-10.41 127.6,-40.52 153.3,-94.31zm3479.42 -87.07c41.37,-97.82 83.31,-196.99 112.22,-307.29l0.32 -0.85c22.96,-43.6 48.15,-132.68 70.99,-232.31 30.61,-133.49 56.98,-285.65 68.34,-373.16 -36.77,9.87 -68.36,20.06 -97.83,29.56 -95.9,30.91 -169.64,54.68 -323.45,37.1 -79.85,-9.13 -144.45,-27.02 -202.48,-52.09 -57.97,-25.04 -109.35,-57.25 -162.83,-95.04 -87.97,-62.15 -157.96,-144.21 -216.46,-234.09 -58.41,-89.72 -105.36,-187.19 -147.37,-280.38l0 -0.02 -4.76 -10.61c-8.59,-19.19 -11.73,-26.17 -14.01,-27.35 -0.46,-0.24 -1.91,0.3 -4.17,1.14 -7.16,2.66 -19.73,7.33 -47.7,1.28l-2.83 -2.43c-13.82,-35.84 -25.19,-60.63 -33.82,-79.45 -12.41,-27.07 -19.3,-42.1 -19.84,-60 -0.67,-22.07 8.48,-47.26 29.02,-103.83 4.54,-12.5 9.66,-26.59 15.96,-44.26 49.11,-137.61 92.57,-293.8 118.05,-451.36 21.57,-133.43 30.26,-267.89 18.57,-392.9l-29.3 -156.67c-0.56,-1.35 -1.35,-3.15 -2.19,-4.89 -0.08,-0.17 -0.16,-0.33 -0.24,-0.5l-244.43 140.81c-100.24,81.43 -108.29,91.23 -133.37,121.8 -12.96,15.8 -30.45,37.11 -67.32,76.51l0.01 0.01 -125.12 137.1c-10.65,11.67 -21.7,25.06 -33.27,39.05 -68.3,82.66 -154.37,186.82 -306.66,122.76 -18.01,-7.57 -35.64,-17.07 -51.7,-28.33 -27.89,-19.55 -51.06,-44.43 -63.35,-73.8 -12.37,-29.55 -13.76,-63.56 2.05,-101.15 5.23,-12.44 12.37,-25.3 21.63,-38.5 2.59,-3.7 5.37,-7.72 7.86,-11.32 11.82,-17.09 16.83,-24.35 24.61,-27.87 5.68,-2.57 12.03,-2.74 23.04,-3.02 6.65,-0.17 15.13,-0.39 26.34,-1.24 -390.11,-150.8 -479.76,-145.46 -799.23,-126.41 -45.85,2.74 -96.44,5.76 -153.8,8.66 -62.23,3.15 -107.3,-3.54 -155.11,-10.63 -82.24,-12.2 -172.67,-25.62 -373.33,8.39 -68.99,11.69 -177.82,35.61 -275.55,63.92 -71.03,20.57 -136.16,43.46 -175.7,65.61 3,3.81 6.37,7.9 9.95,12.26 29.88,36.33 75.05,91.26 55.93,154.32 -9.04,29.8 -29.17,61.07 -57.48,86.56 -23.93,21.54 -53.74,38.99 -87.7,48 -33.96,9.01 -72.05,9.56 -112.52,-2.71 -47.38,-14.37 -97.98,-46.34 -148.92,-102.94l-0.02 -0.03 -181.81 -205.58 -0.14 -0.15c-51.2,-64.13 -124.68,-132.99 -205.46,-193.96 -77.12,-58.2 -160.86,-109.15 -238.19,-141.89 -33.98,60.91 -41.98,168.26 -36.53,286.01 8.3,179.39 47.89,382.56 74.52,483.31 12.14,45.94 29.22,93.5 46.23,140.87 51.13,142.39 101.71,283.28 18,376.06 -6.54,7.25 -8.75,10.41 -9.65,11.69l0 0c-0.72,1.04 -1.12,1.56 -1.98,2.02l-0.03 0.02c-2.43,1.31 -3.3,0.62 -4.75,-0.63l-0.02 0c-0.25,-0.22 -1.03,-0.89 -10.89,1.73 -9.83,2.61 -16.69,3.17 -21.96,3.59 -6.29,0.51 -9.89,0.8 -13.52,5.02 -5.85,6.8 -12.94,22.94 -29.45,60.48l-6.48 14.72c-46.76,106.11 -106.33,206.31 -174.87,292.64 -65.86,82.94 -140.06,153.12 -219.23,203.53 -127.84,81.39 -241.8,111.32 -359.63,111.18 -116.15,-0.14 -235.75,-29.46 -376.07,-67.44 6.21,70.29 35.33,268.49 68.62,425.73 22.08,104.3 45.82,190.26 65.5,207.83l1.31 2.91c0.36,51.33 28.38,146.7 67.53,239.79 36.2,86.09 81.88,170.06 123.91,215.23 7.14,7.68 15.04,15.19 23.05,22.8 31.64,30.09 65.03,61.84 66.57,116.71l-4 4.03 -66.54 -1.52 -1.52 -0.34 -234.21 -104.16c28.29,75.05 125.55,213.59 230.28,343.13 116.41,143.99 241.78,276.6 291.57,298.18l743.69 131.5c6.43,1.13 15.32,2.87 25.31,4.8 33.78,6.56 80.69,15.67 100.06,14.75 17.91,-0.85 34.7,-6.8 49.1,-16.2 14.36,-9.37 26.35,-22.17 34.72,-36.77l-33.26 -27.02c-95.58,-43.9 -209.83,-122.42 -320.29,-212.41 -124.69,-101.59 -244.65,-217.84 -327.51,-315.41 -81.39,-95.84 -175.72,-227.15 -259.06,-370.89 -69.44,-119.79 -131.26,-248.25 -171.61,-372.05l2.94 -5.06 12.76 -2.67c278.64,-58.41 533.66,-111.86 688.63,-364.9 27.21,-44.43 45.2,-99.31 61.52,-149.07 14.39,-43.9 27.51,-83.88 44.67,-109.89l2.46 -1.68c96.1,-20.72 195.5,-28.7 293.5,-23.39 96.07,5.21 190.8,23.22 279.78,54.53 72.11,25.37 164.87,70.15 246.42,120.6 66.96,41.43 126.45,86.75 160.94,128.43 4.63,-20.8 7.81,-46.36 11.05,-72.39 6.16,-49.53 12.53,-100.82 30.04,-127.11l6.23 -0.41c41.52,47.51 81.55,107.19 120.38,165.1 24.41,36.39 48.35,72.1 72.04,103.79 36.81,49.24 72.56,92.05 115.06,125.69 41.6,32.93 89.83,57.23 152.12,70.45 10.22,-38.22 30.57,-93.73 54.01,-157.69 57.17,-156 132.84,-362.46 123.58,-486.01l1.05 -2.97c9.69,-10.37 22.28,-57.5 34.8,-116.13 21.37,-100.06 42.08,-232.81 48.36,-275.95l7.47 -1.04c16.24,36.39 23.16,96.37 29.71,153.18 4.22,36.63 8.3,71.94 14.59,98.42l13.67 42.56 0.19 1.14c1.39,73.46 38.47,227.77 84.04,378.42 47.69,157.67 104.58,311.05 139.52,363.35 134.13,-21.4 199.86,-105.25 262.4,-185.05l4.82 -6.15 0 -0.02c24.05,-30.65 40.13,-56.24 57.26,-83.5 10.01,-15.92 20.39,-32.43 33.06,-51.06l0.03 -0.06 100.31 -142.71 7.12 1.89c1,10.59 1.84,20.56 2.71,31.01 4.87,58.49 11.02,132.19 31.51,171.78 26.02,-16.78 48.2,-35.82 72.27,-56.48 63.29,-54.33 139.55,-119.8 333.16,-186.28 96.95,-33.29 187.15,-51.35 279.56,-56.64 92.34,-5.29 186.83,2.18 292.46,19.92l2.51 1.54c18.16,24.61 25.83,54.72 33.6,85.29 3.82,15.02 7.68,30.16 12.75,44.55 52.67,149.42 149.63,261.03 271.8,340.31 139.72,90.67 312.5,139.12 489.87,153.53l3.49 4.92c-30.04,112.92 -86.94,234.81 -154.88,352.96 -88.21,153.41 -195.04,300.52 -285.78,413.54l-0.29 0.32 -186.26 185.48 357.63 -36 0.17 -0.02 366.11 -20.54c23.54,-38.4 51.8,-78.34 81.07,-119.71 51.31,-72.51 105.78,-149.47 143.63,-231.01 -25.63,7.71 -54.02,20.38 -83.59,33.58 -63.8,28.47 -133.08,59.38 -194.23,49.66l-3.06 -5.26c13.94,-36.68 35.78,-64.56 58.41,-93.47 8.43,-10.77 16.99,-21.7 25.36,-33.4 30.99,-43.33 43.78,-74.01 64.37,-123.45 2.93,-7.04 6.15,-14.77 10.52,-25.1l6.3 -14.91zm-6866.02 3932.13l-163.9 0 -3.94 -3.94c0,-81.52 1.9,-164.22 5.2,-247.23 3.29,-82.94 7.97,-165.86 13.53,-247.99 12.74,-188.05 25.14,-303.15 62.15,-410.87 37.01,-107.72 98.54,-207.76 209.53,-365.65 25.28,-35.96 73.87,-90.33 123.3,-142.86 49.29,-52.38 99.61,-103.1 128.35,-131.78 66.75,-66.6 170.26,-143.36 285.32,-214.77 115.35,-71.58 242.41,-137.84 355.73,-183.11 63.83,-25.49 126.46,-49.35 191.37,-70.95 64.94,-21.62 132.12,-40.99 204.97,-57.48 30.21,-6.84 97.39,-17.61 170.63,-29.35 114.3,-18.32 243.43,-39.03 268.38,-50.46 -0.64,-36.29 -33.84,-105.15 -63.54,-166.73 -15.33,-31.8 -29.76,-61.7 -38.38,-84.43l-0.06 -0.17 -132.92 -405.03 -0.08 -0.28c-26.51,-106.83 -28.02,-107.99 -71.35,-141.01 -31.12,-23.72 -83.25,-63.45 -179.62,-166.94l-0.08 -0.08 -169.31 -192.62 -0.12 -0.15c-77.93,-97.74 -180.64,-241.11 -265.14,-386.07 -63.81,-109.47 -117.28,-219.91 -141.92,-312.39l5.37 -4.6 294.72 128.39c-5.91,-30.54 -37.43,-112.31 -63.23,-179.26 -13.28,-34.46 -25.07,-65.02 -31.11,-82.81 -73.14,-214.96 -108.57,-430.07 -137.86,-607.91 -22.37,-135.79 -41.16,-249.82 -70.36,-325.06l5.23 -5.01c29.36,12.77 53.44,29.49 79.18,47.37 14.69,10.2 29.94,20.8 46.93,31.17 77.88,47.56 164.37,79.17 254.55,94.35 90.82,15.29 185.42,13.92 278.78,-4.6 114.7,-22.75 216.45,-91.31 301.1,-179.54 106.61,-111.11 186.08,-253.37 230.23,-374.78 24.51,-67.41 -19.14,-170.4 -76.6,-305.98 -95.31,-224.87 -228.31,-538.7 -153.26,-933.05 11.69,-61.41 26.93,-117.26 45.33,-170.92 18.4,-53.63 39.99,-105.15 64.37,-157.89 6.06,-13.12 11.44,-25.21 16.56,-36.7 49.55,-111.39 74.96,-168.52 245.97,-125.9 156.51,39 308.54,103.08 447.57,184.69 143.94,84.49 273.96,187.77 380.62,301.44 96.97,103.34 112.31,98.17 204.06,67.25 22.87,-7.7 50.38,-16.98 84.81,-26.59 292.94,-81.75 435.8,-72 703.96,-53.7 27.39,1.87 56.11,3.83 86.05,5.77 60.13,3.89 125.5,-2.95 194,-10.12 70.15,-7.34 143.59,-15.02 218.39,-11.97 221.56,9.06 354.91,52.3 448.24,82.56 107.69,34.91 161.25,52.28 236.47,-22.11 121.79,-120.44 230.99,-220.93 356.86,-303.88 125.89,-82.96 268.3,-148.24 456.37,-198.17 85.37,-22.66 140.32,-34.61 183.12,-22.11 43.15,12.59 73.09,49.54 107.97,124.57 24.96,53.72 49.82,114.07 70.52,176.77 17.53,53.1 32.12,107.95 41.31,161.96 32.17,188.98 15.33,375.63 -27.54,556.3 -42.81,180.46 -111.61,355.02 -183.44,520.03 -5.4,12.41 -11.5,24.15 -17.48,35.69 -19.05,36.72 -37.09,71.49 -26.08,115.85 5.26,21.18 17.13,49.89 30.35,78.33 13.26,28.53 27.87,56.8 38.52,76.97 113.74,215.42 260.15,355.75 430.91,414.36 168.35,57.79 360.6,36.22 568.76,-71.05 35.13,-18.1 57.43,-34.37 76.2,-48.07 21.68,-15.82 38.8,-28.31 65.37,-36.48l5.01 4.49c-14.98,77.01 -22.34,148.09 -30.3,224.97 -12.01,116.04 -25.41,245.33 -68.3,428.14l-0.09 0.29 -178.76 560.57 265.87 -115.77 5.04 5.43c-16.13,30.7 -31.83,68.56 -47.48,106.26 -12.47,30.05 -24.91,60.02 -37.66,86.55 -15.4,32.06 -33.3,66.2 -51.96,99.33 -18.55,32.93 -37.99,65.08 -56.62,93.39l-1.59 2.42c-84.54,128.47 -158.28,240.51 -247.94,347.46 -37.51,44.74 -39.38,62.83 -44.17,109.22 -2.9,28.06 -6.84,66.24 -19.96,126.01 -3.92,17.86 -9.74,44.13 -15.59,70.56 -51.03,230.32 -99.6,449.53 -107.81,701.16 312.06,76.5 552.07,146.98 762.58,245.74 211.33,99.15 392.82,226.73 587.4,417.4 18.24,17.87 34.74,31.78 50.54,45.1 26.34,22.2 50.79,42.81 77.94,76.99 19.13,24.08 36.11,43.25 53.38,62.74 19.11,21.56 38.58,43.52 61.36,72.52 213.61,271.89 186.89,621.03 158.8,988.02 -8.69,113.6 -17.53,228.93 -19.38,343.85l-3.92 3.87 -86.4 0 -3.92 -3.83c-4.02,-131.05 0.91,-258.28 5.64,-380.61 14.26,-368.37 26.8,-692.43 -212.43,-940.67 -129.72,-134.61 -274.2,-253.98 -430.26,-355.76 -155.49,-101.41 -322.52,-185.39 -497.98,-249.63 -63.52,-23.26 -182.76,-66.85 -302.03,-104.44 -119.14,-37.54 -238.4,-69.14 -302.27,-68.58 -235.88,2.1 -476.14,56.49 -703.36,145.46 -250.42,98.05 -484.95,238.09 -680.33,396.41 -38.02,30.81 -64.88,55.36 -85.4,74.12 -62.98,57.57 -68.33,62.44 -144.42,25.32l-2.2 -3.33c-3.89,-73.21 9.72,-83.4 66.35,-125.8 19.76,-14.8 44.91,-33.63 76.62,-60.77 167.41,-143.31 357.74,-251.91 473.26,-317.83 44.39,-25.32 77.66,-44.31 94.01,-56.28 -151.69,14.68 -350.89,78.57 -511.6,130.11 -127.41,40.86 -230.75,74.01 -268.37,68.95l-2.8 -1.8c-27.76,-43.92 -32.88,-75.26 -19.48,-99.72 13.22,-24.13 44.42,-40.82 89.61,-55.91 196.87,-65.74 357.45,-119.05 523.63,-161.36 166.35,-42.35 338.53,-73.76 558.63,-95.69 87.68,-8.74 177.63,-9.65 266.2,-10.56 84.88,-0.86 168.53,-1.72 247.67,-9.46 19.19,-92.38 29.92,-199.63 40.46,-305.06 6.25,-62.58 12.45,-124.54 20.31,-182.41 1.38,-10.16 2.66,-19.89 3.94,-29.67 8.55,-65.13 17.79,-135.43 38.45,-201.33 12.01,-38.31 16.7,-75.09 21.28,-111.04 4.55,-35.75 9,-70.7 20.34,-105.66 -246.81,-14.02 -608.48,55.06 -874.39,105.86 -45.43,8.68 -88.06,16.82 -127.85,24.11 -303.48,55.54 -470.18,70.71 -666.86,88.6 -100.41,9.13 -208.69,18.99 -347.74,35.39l90.03 492.28 -3.86 4.63c-27.22,0.07 -63.24,-1.8 -102.81,-3.86 -104.29,-5.43 -233.38,-12.14 -286.47,12.09 -18.43,57.59 -17.9,376.57 -17.61,548.24 0.06,37.06 0.11,67.28 -0.04,86.53 -2.59,321.91 -49.81,701.86 -94.89,1064.65 -19,152.97 -37.64,302.91 -52.32,443.49 -3.62,34.71 -8.41,69.17 -13.21,103.68 -8.57,61.76 -17.2,123.76 -19.18,187.31l-3.92 3.83 -209.94 0 -3.92 -3.85c-0.85,-34.39 -2.33,-67.81 -3.76,-100.5 -5.03,-114.14 -9.67,-219.52 13.58,-337.01 6.47,-32.69 12.58,-61.02 17.99,-86.15 26.63,-123.56 36.6,-169.81 -11.16,-267.23 -49.67,-101.32 -99.96,-212.51 -146.43,-324.82 -43.67,-105.54 -83.99,-212.15 -117.28,-312.55 -71.22,-214.78 -150.04,-379.64 -244.8,-531.57 -94.76,-151.94 -205.55,-291.06 -340.62,-454.29 -7.83,-9.47 -17.03,-20.92 -26.53,-32.74 -26.23,-32.66 -54.92,-68.37 -74.98,-86.66l-6.35 13.57c-1.85,4.95 -3.52,9.13 -5.02,12.61 -0.39,1.81 -0.89,3.85 -1.52,6.13 -37.75,136.77 -3.45,248.23 26.84,346.67 25.5,82.89 48.21,156.69 23.61,229.43 -24.06,71.15 -123.66,155.45 -213.26,231.29 -66.57,56.34 -127.59,107.98 -146.95,145.06 48.53,108.14 311.92,484.88 524.83,789.4 106.09,151.75 199.68,285.61 247.75,359.12 9.72,14.86 21.73,32.8 35.48,53.32 69.07,103.12 181.63,271.17 204.35,345.7l-3.75 5.07 -175.85 0 -3.91 -3.51c-11.55,-102.89 -182.37,-340.38 -301.21,-505.61 -36.48,-50.71 -68.08,-94.66 -88.68,-125.8 -26.15,-39.53 -53.61,-79.3 -81.72,-120 -41.21,-59.67 -83.83,-121.38 -124.85,-185.9 -32.19,-50.63 -64.31,-95.13 -96.46,-139.65 -37.21,-51.53 -74.47,-103.13 -111.7,-163.95 -10.41,-17 -25.2,-36.96 -41.56,-59.01 -60.51,-81.59 -142.19,-191.73 -107.1,-292.96 12.33,-35.59 29.55,-63.56 48.6,-86.74 19.02,-23.15 39.8,-41.45 59.38,-57.81 0.97,-0.81 2.35,-1.91 3.72,-2.99 1.03,-0.82 1.98,-1.57 3.24,-2.61l57.98 -53.96 0 0c12.92,-12.78 23.31,-22.62 34.54,-32.14 11.28,-9.56 23.43,-18.81 39.87,-30.4 129.61,-91.36 115.26,-137.42 82.82,-241.52 -9.3,-29.85 -20.07,-64.39 -29.46,-106.07 -40.32,-178.86 -36.66,-206.81 -27.35,-278.06 5.27,-40.28 12.37,-94.57 14.2,-198.71 -33.66,-25.37 -109.21,-36.79 -181.13,-47.66 -29.62,-4.48 -58.64,-8.86 -84.19,-14.16 -55.13,-11.43 -117.31,-21.15 -178.79,-30.76 -38.35,-5.99 -76.46,-11.95 -111.41,-18.06 -36.29,-6.34 -71.56,-12.06 -106.65,-17.76l0 -0c-56.9,-9.22 -113.33,-18.38 -168.4,-29.15l-11 -2.17c-58.07,-11.46 -218.81,-43.19 -260.17,-36.39l-19.74 5.88c19.52,110.67 52.42,220.48 92.21,326.02 40.23,106.69 87.51,209.03 135.15,303.48 43.77,86.78 71.29,92.37 123.03,102.84 54.04,10.94 133.75,27.09 282.04,140.2 51.28,39.11 78.83,71.92 91.22,99.12 10.75,23.58 10.27,43.11 3.96,59 -6.28,15.81 -18.3,27.84 -30.72,36.65 -19.59,13.89 -40.86,19.91 -41.45,19.96l-0.02 0c-20.96,1.63 -47.42,-21.83 -83.34,-53.68 -61.67,-54.69 -152.04,-134.82 -285.44,-151.97 -51.26,-6.59 -123.81,-2.98 -200.27,5.34 -113.07,12.3 -234.6,34.92 -308.84,50.16 -301.96,61.97 -585.46,170.15 -827.37,334.34 -219.43,148.93 -404.68,344 -538.46,592.54 -41.04,76.25 -73.95,138.17 -96.84,204.3 -22.87,66.1 -35.87,136.71 -37.17,230.57 -0.99,70.87 -5.41,138.69 -9.78,205.99 -7.81,120.19 -15.53,238.77 -3.44,368.49l-3.91 4.29z"/>
   </g>
   <path class="fil2" d="M5922.44 7871.45l2616.17 0c-12.08,-133.66 -22.3,-238.03 -12.38,-380.8 7.02,-101 3.98,-288.13 143.32,-207.04 19.77,54.25 -2.26,451.44 18.04,587.84l1376.41 0c-16.14,-526.2 112.11,-991.84 -207.89,-1323.89 -259.41,-269.19 -577.66,-477.46 -929.71,-606.36 -127.07,-46.52 -476.94,-174.39 -605.68,-173.24 -496.87,4.43 -1012.82,240.24 -1386.13,542.74 -151.02,122.37 -127.09,147.02 -225.62,98.94 -5.13,-96.64 21.22,-80.34 141.59,-183.39 247.91,-212.21 546.31,-348.3 576.61,-382.11 -271.43,21.8 -706.75,211.56 -791.34,200.18 -53.8,-85.11 -20.51,-120.24 68.06,-149.82 393.41,-131.37 641.74,-213.06 1081.4,-256.87 172.68,-17.21 354.22,-4.03 516.74,-20.3 31.09,-147.83 40.15,-334.19 61.39,-490.57 9.9,-72.87 18.5,-154.59 42.26,-230.35 24.55,-78.29 18.67,-149.96 43.22,-221.5 -289.69,-17.93 -740.8,80.78 -1008.3,129.74 -460.15,84.22 -605.65,75.56 -1018.51,124.44l90.79 496.4c-99.26,0.28 -319.61,-25.73 -392.5,9.32 -23.26,65.5 -17.48,528.21 -18.37,637.57 -3.69,457.02 -97.47,1031.8 -147.2,1507.78 -10.1,96.67 -29.3,191.87 -32.4,291.29z"/>
   <path class="fil2" d="M1754.18 7871.45l1307.01 0c2.78,-125.94 10.71,-247.41 10.69,-374.7 -0.02,-94.81 -36.99,-300.85 54.04,-313.65 110.71,-15.57 88.7,130.34 89.94,301.16 0.95,130.24 -5.85,258.17 -7.19,387.19l2076.08 0c-15.23,-135.69 -302.41,-499.94 -390.52,-633.15 -63.9,-96.61 -137.16,-196.73 -206.52,-305.84 -69.21,-108.88 -138.67,-190.04 -208.13,-303.54 -48.74,-79.63 -192.16,-222.18 -148.31,-348.65 24.31,-70.16 67.89,-110.3 106.8,-142.81 2,-1.67 4.93,-3.93 6.94,-5.59l58.15 -54.12c25.72,-25.44 41.34,-39.19 73.99,-62.2 169.06,-119.17 97.54,-162.63 54.93,-351.66 -63.24,-280.56 -17.92,-188.19 -13.02,-477.81 -47.28,-37.67 -180.36,-45.48 -268.49,-63.76 -89.1,-18.48 -196.94,-32.52 -290.31,-48.84 -92.8,-16.22 -185.2,-29.33 -274.97,-46.89 -45.23,-8.84 -228.07,-46.13 -272.8,-38.53l-23.33 6.95c38.98,224.22 132.93,444.89 228.32,634.03 89.85,178.17 112.97,20.73 406.19,244.39 204.1,155.67 26.73,207.55 25.09,207.68 -53.41,4.15 -157,-178.5 -368,-205.62 -127.8,-16.43 -385.68,29.94 -510.39,55.54 -576.89,118.4 -1086.65,405.24 -1368.51,928.86 -82.22,152.75 -131.84,248.05 -134.47,436.68 -2.75,196.83 -32.12,372.03 -13.21,574.89z"/>
   <path class="fil3" d="M2930.82 3680.35c10.65,-22.94 29.77,-17.17 30.2,-17.27 0.96,-0.23 4.63,-0.07 6.78,-0.79l0.55 -268.17c109.04,-19.88 596.21,100.25 776.34,-311.24 123.34,-281.76 -63.99,-274.74 332.59,-404.19 88.31,-28.83 201.02,-58.53 300.22,-61.33 -25.07,-72.75 -74.17,-121.52 -101.14,-194.31 311.35,21.91 547.58,40.59 819.47,204.89 68.31,41.28 152.93,136.07 201.43,148.63 9.25,-98.95 -7.25,-152.68 -13.57,-239.61 140.08,41.56 292.53,117.13 411.72,203.3 69.48,50.23 66.1,49.85 59.16,142.28 27.56,-29.52 74.17,-325.45 84.18,-394.2 26.39,59.12 27.97,183.26 44.06,250.91l13.76 42.85c23.44,-53.97 143.36,-114.22 200.07,-143.92 79.22,-41.48 153.28,-74.1 241.98,-100.87l-16.64 241.92c100.68,-23.85 225.78,-338.84 1024.81,-355.35 -37.48,96.73 -100.99,138.5 -94.67,194.96 448.01,47.98 340.37,95.76 550.58,162.25 34.63,226.84 43.49,258.87 148.33,413.6 176.35,260.28 484.45,187.21 703.89,195.67l1.39 283.7 79.92 -37.08c54.78,-104 121.54,-462.62 140.49,-612.6 -159.79,42.14 -222.7,91.23 -425.47,68.05 -158.87,-18.16 -256.94,-71.15 -363.5,-146.43 -175.04,-123.67 -278.62,-326.74 -362.51,-512.87 -32.05,-71.1 -7.27,-23.48 -73.41,-37.79 -63.28,-164.13 -75.5,-97.46 -8.64,-284.8 90.85,-254.57 162.41,-572.77 136.8,-846.17l-29.41 -157.24c-1,-2.41 -2.83,-6.59 -4.67,-9.66l-248.23 143c-152.39,123.78 -92.83,82.91 -201.34,198.9l-125.12 137.1c-73.63,80.7 -160.27,234.56 -335.5,160.84 -89.43,-37.61 -168.87,-122.96 -89.68,-235.92 37.78,-53.9 18.58,-34.85 95.58,-43.34 -461.44,-179.59 -510.64,-147.29 -970.16,-124.03 -168.95,8.55 -211.44,-56 -528.9,-2.19 -121.11,20.53 -364.87,78.68 -456.48,132.23 26.06,34.25 89.54,95.62 68,166.61 -32.58,107.41 -213.15,234.97 -399.94,27.41l-181.81 -205.58c-101.18,-126.73 -288.73,-271.67 -448.39,-338.37 -89.41,152.31 -8.67,606.81 35.87,775.29 48.37,183 174.86,391.64 65.11,513.3 -20.77,23.02 0.53,6.79 -25.39,13.67 -43.13,11.44 -28.16,-18.01 -74.01,86.04 -91.41,207.41 -231.76,392.03 -392.61,494.45 -254.26,161.89 -453.15,119.03 -737.98,41.78 8.38,107.09 84.07,595.49 135.89,641.74z"/>
   <path class="fil4" d="M2930.82 3680.35c0.7,99.78 104.32,362.93 192.48,457.69 35.23,37.87 86.69,69.92 88.57,136.94l-66.54 -1.52c57.62,111.98 330.94,325.8 506.3,410.34 145.4,70.09 348.65,132.25 516.01,172.15 61.99,14.78 146.38,48.46 185.43,25.95 -202.86,-92.99 -490.79,-343.19 -646.9,-527.01 -148.98,-175.42 -341.35,-469.8 -429.93,-741.61 284.48,-59.68 545.71,-111.02 703.94,-369.37 51.42,-83.96 69.91,-204 106.11,-258.85 189.68,-40.9 392.12,-32.01 571.17,31 133.71,47.05 338.76,161.09 410.61,254.04 15.37,-59.63 15.23,-165.22 42.41,-206.04 67.48,77.2 131.22,187.05 192.22,268.66 73.94,98.92 143.77,172.05 273.19,198.39 32.97,-127.92 191.93,-471.68 178.66,-648.6 6.94,-92.43 10.31,-92.05 -59.16,-142.28 -119.19,-86.17 -271.64,-161.74 -411.72,-203.3 6.32,86.93 22.82,140.66 13.57,239.61 -48.5,-12.56 -133.11,-107.35 -201.43,-148.63 -271.89,-164.3 -508.12,-182.98 -819.47,-204.89 26.97,72.79 76.07,121.56 101.14,194.31 -99.2,2.8 -211.91,32.5 -300.22,61.33 -396.57,129.45 -209.24,122.43 -332.59,404.19 -180.13,411.49 -667.3,291.37 -776.34,311.24l-0.55 268.17c-2.16,0.72 -5.82,0.56 -6.78,0.79 -0.43,0.1 -19.55,-5.67 -30.2,17.27z"/>
   <path class="fil4" d="M5896.56 2782.08c2.88,152.26 157.56,647.7 225.64,745.98 140.8,-21.54 207.27,-110.38 272.15,-193.06 38.22,-48.72 56.4,-84.69 90.47,-134.79l100.31 -142.71c5.96,62.67 10.1,161.55 36.68,208 97.21,-61.09 137.91,-151.82 408.15,-244.62 193.24,-66.36 359.41,-71.96 570.1,-36.56 26.51,35.92 30.28,84.82 45.8,128.81 113.5,321.94 431.24,469.32 765.07,496.45 -68.86,258.88 -279.5,565.25 -439.92,765.04l-194.09 193.28 368.61 -37.11c28.99,-40.25 172.85,-140.99 271.81,-259.74 32.35,-38.83 -2.57,-14.95 41.58,-36.07 18.94,-49.83 52.91,-83.49 83.3,-125.98 36.19,-50.6 47.7,-83.96 75.3,-149.3 43.43,-102.81 88.25,-206.55 118.7,-322.73l-79.92 37.08 -1.39 -283.7c-219.44,-8.46 -527.54,64.61 -703.89,-195.67 -104.83,-154.73 -113.7,-186.76 -148.33,-413.6 -210.22,-66.48 -102.57,-114.26 -550.58,-162.25 -6.31,-56.45 57.19,-98.22 94.67,-194.96 -799.03,16.52 -924.13,331.5 -1024.81,355.35l16.64 -241.92c-88.7,26.77 -162.76,59.39 -241.98,100.87 -56.71,29.7 -176.63,89.94 -200.07,143.92z"/>
   <path class="fil4" d="M5547.84 4961.26c-9.26,-43.1 -2.33,-84.72 20.05,-117.08l36.98 -37.94c60.67,-62.68 111.98,-91.16 242.14,-90.31 139.14,0.91 335.07,88.74 285.28,253.85 -9.41,31.2 -166.3,256.93 -296.23,251.4 -125.31,-5.33 -278.42,-214.32 -288.21,-259.91zm-418.7 -304.34c-10.99,-62.81 -24.28,-112.89 -56.12,-162.11l-22.32 31.71c-35.86,63.32 -64.69,206.38 -72.83,276.74 -37.6,324.86 45.51,723.04 319.98,876.77 209.37,-100.81 326.09,-259.93 640.66,-201.57l2.67 -211.22 395.83 0.03c-11.17,-122.09 -94.61,-409.46 -85.24,-500.01l359.37 -17.89c-15.74,-96.46 -48.78,-191.63 -90.21,-259.72l-65.33 173.2c-27.16,-39.77 -71.51,-182.99 -101.06,-246.21 -132.49,-283.5 -199.69,-527.66 -544.23,-530.25 -98.09,-0.74 -213.98,20.6 -283.94,67.03 -83.33,55.3 -105.23,111.9 -157.88,204.13 -97.81,171.33 -198.15,439.77 -211.89,463.63 -21.89,37.98 -6.74,16.03 -27.44,35.76z"/>
   <path class="fil5" d="M5460.61 7871.45l251.89 0c-3.84,-155.18 -20.06,-286.05 9.76,-436.66 38.37,-193.89 64.63,-237.26 6.5,-355.86 -96.28,-196.39 -194.89,-429.93 -263.51,-636.88 -142.67,-430.27 -315.77,-660.46 -586.11,-987.13 -32.97,-39.84 -78.67,-100.37 -105.88,-123.28l-8.65 18.48c-26.02,69.76 6.74,-29.46 -6.69,19.17 -69.69,252.48 103.82,418.27 50.52,575.88 -41.76,123.47 -317.44,289.74 -360.85,377.51 69.8,158.78 627.73,927.63 773.65,1150.77 55.15,84.33 212.24,309.03 239.37,398z"/>
   <path class="fil3" d="M5316.79 5823.07l141.33 251.51c87.39,175.48 269.17,781.65 351.81,847.95 30.44,-64.29 79.21,-403.46 98.37,-501.76 36.76,-188.53 13.87,-395.02 26.86,-591.02 -565.98,36.52 -360.13,-171.07 -592.3,-23.76l-26.09 17.08z"/>
   <path class="fil3" d="M4353.07 4881.91c-39.05,22.51 -123.44,-11.17 -185.43,-25.95 -167.36,-39.9 -370.61,-102.06 -516.01,-172.15 -175.36,-84.54 -448.68,-298.37 -506.3,-410.34l-242.56 -107.87c49.46,151.73 430.65,611.23 527.44,652.39l744.15 131.58c29.58,5.22 100.61,20.81 126.23,19.59 38.39,-1.82 71.7,-26.08 88.66,-57.86l-36.19 -29.39z"/>
   <path class="fil0" d="M5687.08 4873.83c8.21,-29.24 1.52,-29.44 40.98,-44.04 45.69,-16.9 145.06,-16.63 191.25,-3.21 45.61,13.25 41.59,19.72 52.81,52.63 -65.32,37.53 -214.45,57.54 -285.04,-5.38zm-139.24 87.43c9.8,45.59 162.9,254.58 288.21,259.91 129.93,5.54 286.82,-220.19 296.23,-251.4 49.8,-165.11 -146.13,-252.94 -285.28,-253.85 -130.16,-0.85 -181.46,27.63 -242.14,90.31l-36.98 37.94c-22.38,32.35 -29.31,73.98 -20.05,117.08z"/>
   <path class="fil5" d="M6474.04 4024.38c23.96,51.04 93.62,94.66 176.49,108.98 190.77,32.98 457.52,-166.32 550.51,-308.53 -218.62,14.33 -575.46,102.15 -727,199.55z"/>
   <path class="fil5" d="M5149.24 4020.38c-177.46,-90.28 -486.71,-177.62 -724.53,-195.69 65.68,78.54 198.79,125.61 315.98,181.6 144.87,69.2 360.11,144.69 408.55,14.08z"/>
   <path class="fil6" d="M3061.19 7871.45l147.48 0c1.34,-129.02 8.13,-256.95 7.19,-387.19 -1.24,-170.81 20.78,-316.72 -89.94,-301.16 -91.03,12.8 -54.06,218.83 -54.04,313.65 0.02,127.29 -7.91,248.76 -10.69,374.7z"/>
   <path class="fil3" d="M8458.91 4234.97c-44.15,21.13 -9.22,-2.75 -41.58,36.07 -98.96,118.76 -242.83,219.5 -271.81,259.74l368.17 -20.66c66.3,-108.72 170.13,-228.53 229.52,-360.62 -81.8,21.6 -193.11,99.95 -284.3,85.46z"/>
   <path class="fil6" d="M8538.61 7871.45l148.99 0c-20.3,-136.4 1.73,-533.59 -18.04,-587.84 -139.34,-81.09 -136.3,106.03 -143.32,207.04 -9.92,142.77 0.3,247.14 12.38,380.8z"/>
   <path class="fil4" d="M5687.08 4873.83c70.59,62.93 219.72,42.91 285.04,5.38 -11.22,-32.92 -7.2,-39.39 -52.81,-52.63 -46.19,-13.42 -145.56,-13.69 -191.25,3.21 -39.46,14.6 -32.77,14.8 -40.98,44.04z"/>
  </g>
 </g>
</svg>
